<mxfile host="app.diagrams.net" agent="Mozilla/5.0 (Windows NT 10.0; Win64; x64) AppleWebKit/537.36 (KHTML, like Gecko) Chrome/130.0.0.0 Safari/537.36 Edg/130.0.0.0" version="24.8.3">
  <diagram name="Page-1" id="FyIRsz40tpAIvj82FCYy">
    <mxGraphModel dx="1426" dy="791" grid="0" gridSize="10" guides="1" tooltips="1" connect="1" arrows="1" fold="1" page="0" pageScale="1" pageWidth="850" pageHeight="1100" background="#000000" math="0" shadow="0">
      <root>
        <mxCell id="0" />
        <mxCell id="1" parent="0" />
        <mxCell id="VHG9u79769D6CSE30_-v-21" value="" style="endArrow=classic;html=1;rounded=0;strokeColor=#FFFFFF;" edge="1" parent="1">
          <mxGeometry width="50" height="50" relative="1" as="geometry">
            <mxPoint x="68" y="237" as="sourcePoint" />
            <mxPoint x="203" y="237" as="targetPoint" />
          </mxGeometry>
        </mxCell>
        <mxCell id="VHG9u79769D6CSE30_-v-22" value="Con" style="text;html=1;align=center;verticalAlign=middle;whiteSpace=wrap;rounded=0;" vertex="1" parent="1">
          <mxGeometry x="103" y="206" width="60" height="30" as="geometry" />
        </mxCell>
        <mxCell id="VHG9u79769D6CSE30_-v-23" value="" style="endArrow=none;dashed=1;html=1;rounded=0;strokeColor=#FFFFFF;" edge="1" parent="1">
          <mxGeometry width="50" height="50" relative="1" as="geometry">
            <mxPoint x="202" y="655" as="sourcePoint" />
            <mxPoint x="202" y="176" as="targetPoint" />
          </mxGeometry>
        </mxCell>
        <mxCell id="VHG9u79769D6CSE30_-v-24" value="" style="rounded=0;whiteSpace=wrap;html=1;fillColor=#000000;strokeColor=#FFFFFF;" vertex="1" parent="1">
          <mxGeometry x="143" y="112" width="120" height="60" as="geometry" />
        </mxCell>
        <mxCell id="VHG9u79769D6CSE30_-v-25" value="&lt;font color=&quot;#ffffff&quot;&gt;&lt;u&gt;:System&lt;/u&gt;&lt;/font&gt;" style="text;html=1;align=center;verticalAlign=middle;whiteSpace=wrap;rounded=0;" vertex="1" parent="1">
          <mxGeometry x="173" y="127" width="60" height="30" as="geometry" />
        </mxCell>
        <mxCell id="VHG9u79769D6CSE30_-v-26" value="&lt;font color=&quot;#ffffff&quot;&gt;AvailibilityRegistration(Description, Instructor)&lt;/font&gt;" style="text;html=1;align=center;verticalAlign=middle;whiteSpace=wrap;rounded=0;" vertex="1" parent="1">
          <mxGeometry x="14" y="206" width="189" height="30" as="geometry" />
        </mxCell>
        <mxCell id="VHG9u79769D6CSE30_-v-27" value="" style="endArrow=classic;html=1;rounded=0;strokeColor=#FFFFFF;" edge="1" parent="1">
          <mxGeometry width="50" height="50" relative="1" as="geometry">
            <mxPoint x="200" y="282" as="sourcePoint" />
            <mxPoint x="374" y="282" as="targetPoint" />
          </mxGeometry>
        </mxCell>
        <mxCell id="VHG9u79769D6CSE30_-v-28" value="" style="endArrow=none;dashed=1;html=1;rounded=0;strokeColor=#FFFFFF;" edge="1" parent="1">
          <mxGeometry width="50" height="50" relative="1" as="geometry">
            <mxPoint x="371" y="658" as="sourcePoint" />
            <mxPoint x="371" y="176" as="targetPoint" />
          </mxGeometry>
        </mxCell>
        <mxCell id="VHG9u79769D6CSE30_-v-29" value="" style="rounded=0;whiteSpace=wrap;html=1;fillColor=#000000;strokeColor=#FFFFFF;" vertex="1" parent="1">
          <mxGeometry x="312" y="112" width="120" height="60" as="geometry" />
        </mxCell>
        <mxCell id="VHG9u79769D6CSE30_-v-30" value="&lt;font color=&quot;#ffffff&quot;&gt;&lt;u&gt;:LessonOffering&lt;/u&gt;&lt;/font&gt;" style="text;html=1;align=center;verticalAlign=middle;whiteSpace=wrap;rounded=0;" vertex="1" parent="1">
          <mxGeometry x="314" y="127" width="110" height="30" as="geometry" />
        </mxCell>
        <mxCell id="VHG9u79769D6CSE30_-v-31" value="&lt;font color=&quot;#ffffff&quot;&gt;FindOffering(Description)&lt;/font&gt;" style="text;html=1;align=center;verticalAlign=middle;whiteSpace=wrap;rounded=0;" vertex="1" parent="1">
          <mxGeometry x="219" y="251" width="135" height="30" as="geometry" />
        </mxCell>
        <mxCell id="VHG9u79769D6CSE30_-v-32" value="" style="endArrow=none;dashed=1;html=1;rounded=0;strokeColor=#FFFFFF;" edge="1" parent="1">
          <mxGeometry width="50" height="50" relative="1" as="geometry">
            <mxPoint x="529" y="664" as="sourcePoint" />
            <mxPoint x="529" y="182" as="targetPoint" />
          </mxGeometry>
        </mxCell>
        <mxCell id="VHG9u79769D6CSE30_-v-33" value="" style="rounded=0;whiteSpace=wrap;html=1;fillColor=#000000;strokeColor=#FFFFFF;" vertex="1" parent="1">
          <mxGeometry x="467" y="112" width="120" height="60" as="geometry" />
        </mxCell>
        <mxCell id="VHG9u79769D6CSE30_-v-34" value="&lt;font color=&quot;#ffffff&quot;&gt;&lt;u&gt;:LessonOfferingDB&lt;/u&gt;&lt;/font&gt;" style="text;html=1;align=center;verticalAlign=middle;whiteSpace=wrap;rounded=0;" vertex="1" parent="1">
          <mxGeometry x="469" y="127" width="110" height="30" as="geometry" />
        </mxCell>
        <mxCell id="VHG9u79769D6CSE30_-v-35" value="" style="endArrow=classic;html=1;rounded=0;strokeColor=#FFFFFF;" edge="1" parent="1">
          <mxGeometry width="50" height="50" relative="1" as="geometry">
            <mxPoint x="370" y="307" as="sourcePoint" />
            <mxPoint x="524" y="307" as="targetPoint" />
          </mxGeometry>
        </mxCell>
        <mxCell id="VHG9u79769D6CSE30_-v-36" value="&lt;font color=&quot;#ffffff&quot;&gt;retreive(LessonOffering)&lt;/font&gt;" style="text;html=1;align=center;verticalAlign=middle;whiteSpace=wrap;rounded=0;" vertex="1" parent="1">
          <mxGeometry x="379" y="279" width="135" height="30" as="geometry" />
        </mxCell>
        <mxCell id="VHG9u79769D6CSE30_-v-37" value="" style="endArrow=classic;html=1;rounded=0;strokeColor=#FFFFFF;entryX=0;entryY=1;entryDx=0;entryDy=0;dashed=1;" edge="1" parent="1" target="VHG9u79769D6CSE30_-v-38">
          <mxGeometry width="50" height="50" relative="1" as="geometry">
            <mxPoint x="522" y="355" as="sourcePoint" />
            <mxPoint x="204" y="369" as="targetPoint" />
          </mxGeometry>
        </mxCell>
        <mxCell id="VHG9u79769D6CSE30_-v-38" value="&lt;font color=&quot;#ffffff&quot;&gt;Return(L)&lt;/font&gt;" style="text;html=1;align=center;verticalAlign=middle;whiteSpace=wrap;rounded=0;" vertex="1" parent="1">
          <mxGeometry x="367" y="325" width="135" height="30" as="geometry" />
        </mxCell>
        <mxCell id="VHG9u79769D6CSE30_-v-39" value="" style="endArrow=classic;html=1;rounded=0;strokeColor=#FFFFFF;" edge="1" parent="1">
          <mxGeometry width="50" height="50" relative="1" as="geometry">
            <mxPoint x="704.5" y="425" as="sourcePoint" />
            <mxPoint x="704.5" y="477" as="targetPoint" />
            <Array as="points">
              <mxPoint x="744.5" y="425" />
              <mxPoint x="744.5" y="477" />
            </Array>
          </mxGeometry>
        </mxCell>
        <mxCell id="VHG9u79769D6CSE30_-v-40" value="&lt;font color=&quot;#ffffff&quot;&gt;AvailibilityforClient(L)&lt;/font&gt;" style="text;html=1;align=center;verticalAlign=middle;whiteSpace=wrap;rounded=0;" vertex="1" parent="1">
          <mxGeometry x="743" y="441" width="135" height="30" as="geometry" />
        </mxCell>
        <mxCell id="VHG9u79769D6CSE30_-v-41" value="" style="endArrow=classic;html=1;rounded=0;strokeColor=#FFFFFF;dashed=1;" edge="1" parent="1">
          <mxGeometry width="50" height="50" relative="1" as="geometry">
            <mxPoint x="701.5" y="517" as="sourcePoint" />
            <mxPoint x="531" y="517" as="targetPoint" />
          </mxGeometry>
        </mxCell>
        <mxCell id="VHG9u79769D6CSE30_-v-42" value="&lt;font color=&quot;#ffffff&quot;&gt;Confirmation()&lt;/font&gt;" style="text;html=1;align=center;verticalAlign=middle;whiteSpace=wrap;rounded=0;" vertex="1" parent="1">
          <mxGeometry x="544.5" y="487" width="135" height="30" as="geometry" />
        </mxCell>
        <mxCell id="VHG9u79769D6CSE30_-v-43" value="" style="endArrow=classic;html=1;rounded=0;strokeColor=#FFFFFF;dashed=1;" edge="1" parent="1">
          <mxGeometry width="50" height="50" relative="1" as="geometry">
            <mxPoint x="374" y="374" as="sourcePoint" />
            <mxPoint x="203" y="374" as="targetPoint" />
          </mxGeometry>
        </mxCell>
        <mxCell id="VHG9u79769D6CSE30_-v-44" value="&lt;font color=&quot;#ffffff&quot;&gt;Return(L)&lt;/font&gt;" style="text;html=1;align=center;verticalAlign=middle;whiteSpace=wrap;rounded=0;" vertex="1" parent="1">
          <mxGeometry x="217" y="344" width="135" height="30" as="geometry" />
        </mxCell>
        <mxCell id="VHG9u79769D6CSE30_-v-45" value="" style="endArrow=classic;html=1;rounded=0;strokeColor=#FFFFFF;" edge="1" parent="1">
          <mxGeometry width="50" height="50" relative="1" as="geometry">
            <mxPoint x="373" y="423" as="sourcePoint" />
            <mxPoint x="705" y="423" as="targetPoint" />
          </mxGeometry>
        </mxCell>
        <mxCell id="VHG9u79769D6CSE30_-v-46" value="&lt;font color=&quot;#ffffff&quot;&gt;Register(Instructor)&lt;/font&gt;" style="text;html=1;align=center;verticalAlign=middle;whiteSpace=wrap;rounded=0;" vertex="1" parent="1">
          <mxGeometry x="548" y="389" width="135" height="30" as="geometry" />
        </mxCell>
        <mxCell id="VHG9u79769D6CSE30_-v-47" value="" style="endArrow=none;dashed=1;html=1;rounded=0;strokeColor=#FFFFFF;" edge="1" parent="1">
          <mxGeometry width="50" height="50" relative="1" as="geometry">
            <mxPoint x="699" y="658" as="sourcePoint" />
            <mxPoint x="699" y="176" as="targetPoint" />
          </mxGeometry>
        </mxCell>
        <mxCell id="VHG9u79769D6CSE30_-v-48" value="" style="rounded=0;whiteSpace=wrap;html=1;fillColor=#000000;strokeColor=#FFFFFF;" vertex="1" parent="1">
          <mxGeometry x="640" y="112" width="120" height="60" as="geometry" />
        </mxCell>
        <mxCell id="VHG9u79769D6CSE30_-v-49" value="&lt;font color=&quot;#ffffff&quot;&gt;&lt;u&gt;L :LessonOffering&lt;/u&gt;&lt;/font&gt;" style="text;html=1;align=center;verticalAlign=middle;whiteSpace=wrap;rounded=0;" vertex="1" parent="1">
          <mxGeometry x="642" y="127" width="110" height="30" as="geometry" />
        </mxCell>
        <mxCell id="VHG9u79769D6CSE30_-v-50" value="" style="endArrow=classic;html=1;rounded=0;strokeColor=#FFFFFF;" edge="1" parent="1">
          <mxGeometry width="50" height="50" relative="1" as="geometry">
            <mxPoint x="202.5" y="414" as="sourcePoint" />
            <mxPoint x="370" y="414" as="targetPoint" />
          </mxGeometry>
        </mxCell>
        <mxCell id="VHG9u79769D6CSE30_-v-51" value="&lt;font color=&quot;#ffffff&quot;&gt;Register(Instructor)&lt;/font&gt;" style="text;html=1;align=center;verticalAlign=middle;whiteSpace=wrap;rounded=0;" vertex="1" parent="1">
          <mxGeometry x="219" y="389" width="135" height="30" as="geometry" />
        </mxCell>
        <mxCell id="VHG9u79769D6CSE30_-v-52" value="" style="endArrow=classic;html=1;rounded=0;strokeColor=#FFFFFF;dashed=1;" edge="1" parent="1">
          <mxGeometry width="50" height="50" relative="1" as="geometry">
            <mxPoint x="529" y="533" as="sourcePoint" />
            <mxPoint x="201.25" y="530" as="targetPoint" />
          </mxGeometry>
        </mxCell>
        <mxCell id="VHG9u79769D6CSE30_-v-53" value="&lt;font color=&quot;#ffffff&quot;&gt;Confirmation()&lt;/font&gt;" style="text;html=1;align=center;verticalAlign=middle;whiteSpace=wrap;rounded=0;" vertex="1" parent="1">
          <mxGeometry x="214.75" y="500" width="135" height="30" as="geometry" />
        </mxCell>
      </root>
    </mxGraphModel>
  </diagram>
</mxfile>
